# xmcd CD database file
#
# Track frame offsets:
#	150
#	18247
#	29496
#	42361
#	58459
#	74160
#	88934
#	104279
#	119443
#	134607
#	154000
#
# Disc length: 2459 seconds
#
# Revision: 0
# Processed by: cddbd v1.5.2PL0 Copyright (c) Steve Scherf et al.
# Submitted via: CDex 1.70beta2
#
DISCID=a509990b
DTITLE=Amr Shaker - Arabic Light Music
DYEAR=1900
DGENRE=New Age
TTITLE0=Diamonds
TTITLE1=The Journey
TTITLE2=A Date
TTITLE3=Whispers
TTITLE4=Colures
TTITLE5=Candles
TTITLE6=Sunshine
TTITLE7=Gold
TTITLE8=Tears
TTITLE9=Living on my own
TTITLE10=The Vision
EXTD=
EXTT0=
EXTT1=
EXTT2=
EXTT3=
EXTT4=
EXTT5=
EXTT6=
EXTT7=
EXTT8=
EXTT9=
EXTT10=
PLAYORDER=
